<svg xmlns="http://www.w3.org/2000/svg" xmlns:xlink="http://www.w3.org/1999/xlink" contentStyleType="text/css" height="330px" preserveAspectRatio="none" style="width:602px;height:330px;background:#FFFFFF;" version="1.1" viewBox="0 0 602 330" width="602px" zoomAndPan="magnify"><defs/><g><!--cluster C++--><g id="cluster_C++"><path d="M8.5,71 L35.5,71 A3.75,3.75 0 0 1 38,73.5 L45,94.6094 L412.5,94.6094 A2.5,2.5 0 0 1 415,97.1094 L415,320.5 A2.5,2.5 0 0 1 412.5,323 L8.5,323 A2.5,2.5 0 0 1 6,320.5 L6,73.5 A2.5,2.5 0 0 1 8.5,71 " fill="none" style="stroke:#000000;stroke-width:1.5;"/><line style="stroke:#000000;stroke-width:1.5;" x1="6" x2="45" y1="94.6094" y2="94.6094"/><text fill="#000000" font-family="sans-serif" font-size="14" font-weight="bold" lengthAdjust="spacing" textLength="26" x="10" y="87.5332">C++</text></g><!--cluster test--><g id="cluster_test"><path d="M255.5,115 L283.5,115 A3.75,3.75 0 0 1 286,117.5 L293,138.6094 L388.5,138.6094 A2.5,2.5 0 0 1 391,141.1094 L391,212.5 A2.5,2.5 0 0 1 388.5,215 L255.5,215 A2.5,2.5 0 0 1 253,212.5 L253,117.5 A2.5,2.5 0 0 1 255.5,115 " fill="none" style="stroke:#000000;stroke-width:1.5;"/><line style="stroke:#000000;stroke-width:1.5;" x1="253" x2="293" y1="138.6094" y2="138.6094"/><text fill="#000000" font-family="sans-serif" font-size="14" font-weight="bold" lengthAdjust="spacing" textLength="27" x="257" y="131.5332">test</text></g><!--cluster python--><g id="cluster_python"><path d="M467.5,115 L516.5,115 A3.75,3.75 0 0 1 519,117.5 L526,138.6094 L592.5,138.6094 A2.5,2.5 0 0 1 595,141.1094 L595,212.5 A2.5,2.5 0 0 1 592.5,215 L467.5,215 A2.5,2.5 0 0 1 465,212.5 L465,117.5 A2.5,2.5 0 0 1 467.5,115 " fill="none" style="stroke:#000000;stroke-width:1.5;"/><line style="stroke:#000000;stroke-width:1.5;" x1="465" x2="526" y1="138.6094" y2="138.6094"/><text fill="#000000" font-family="sans-serif" font-size="14" font-weight="bold" lengthAdjust="spacing" textLength="48" x="469" y="131.5332">python</text></g><!--entity eigen--><g id="elem_eigen"><rect fill="#F1F1F1" height="47.6094" rx="2.5" ry="2.5" style="stroke:#181818;stroke-width:0.5;" width="75" x="158.5" y="151"/><rect fill="#F1F1F1" height="10" style="stroke:#181818;stroke-width:0.5;" width="15" x="213.5" y="156"/><rect fill="#F1F1F1" height="2" style="stroke:#181818;stroke-width:0.5;" width="4" x="211.5" y="158"/><rect fill="#F1F1F1" height="2" style="stroke:#181818;stroke-width:0.5;" width="4" x="211.5" y="162"/><text fill="#000000" font-family="sans-serif" font-size="14" lengthAdjust="spacing" textLength="35" x="173.5" y="185.5332">eigen</text></g><!--entity via_angle--><g id="elem_via_angle"><rect fill="#F1F1F1" height="47.6094" rx="2.5" ry="2.5" style="stroke:#181818;stroke-width:0.5;" width="101" x="22.5" y="151"/><rect fill="#F1F1F1" height="10" style="stroke:#181818;stroke-width:0.5;" width="15" x="103.5" y="156"/><rect fill="#F1F1F1" height="2" style="stroke:#181818;stroke-width:0.5;" width="4" x="101.5" y="158"/><rect fill="#F1F1F1" height="2" style="stroke:#181818;stroke-width:0.5;" width="4" x="101.5" y="162"/><text fill="#000000" font-family="sans-serif" font-size="14" lengthAdjust="spacing" textLength="61" x="37.5" y="185.5332">via_angle</text></g><!--entity gsl--><g id="elem_gsl"><rect fill="#F1F1F1" height="47.6094" rx="2.5" ry="2.5" style="stroke:#181818;stroke-width:0.5;" width="58" x="192" y="259"/><rect fill="#F1F1F1" height="10" style="stroke:#181818;stroke-width:0.5;" width="15" x="230" y="264"/><rect fill="#F1F1F1" height="2" style="stroke:#181818;stroke-width:0.5;" width="4" x="228" y="266"/><rect fill="#F1F1F1" height="2" style="stroke:#181818;stroke-width:0.5;" width="4" x="228" y="270"/><text fill="#000000" font-family="sans-serif" font-size="14" lengthAdjust="spacing" textLength="18" x="207" y="293.5332">gsl</text></g><!--entity boost_test--><g id="elem_boost_test"><rect fill="#F1F1F1" height="47.6094" rx="2.5" ry="2.5" style="stroke:#181818;stroke-width:0.5;" width="106" x="269" y="151"/><rect fill="#F1F1F1" height="10" style="stroke:#181818;stroke-width:0.5;" width="15" x="355" y="156"/><rect fill="#F1F1F1" height="2" style="stroke:#181818;stroke-width:0.5;" width="4" x="353" y="158"/><rect fill="#F1F1F1" height="2" style="stroke:#181818;stroke-width:0.5;" width="4" x="353" y="162"/><text fill="#000000" font-family="sans-serif" font-size="14" lengthAdjust="spacing" textLength="66" x="284" y="185.5332">boost_test</text></g><!--entity pybind11--><g id="elem_pybind11"><rect fill="#F1F1F1" height="47.6094" rx="2.5" ry="2.5" style="stroke:#181818;stroke-width:0.5;" width="98" x="481" y="151"/><rect fill="#F1F1F1" height="10" style="stroke:#181818;stroke-width:0.5;" width="15" x="559" y="156"/><rect fill="#F1F1F1" height="2" style="stroke:#181818;stroke-width:0.5;" width="4" x="557" y="158"/><rect fill="#F1F1F1" height="2" style="stroke:#181818;stroke-width:0.5;" width="4" x="557" y="162"/><text fill="#000000" font-family="sans-serif" font-size="14" lengthAdjust="spacing" textLength="58" x="496" y="185.5332">pybind11</text></g><!--entity via_sphere--><g id="elem_via_sphere"><rect fill="#98FB98" height="47.6094" rx="2.5" ry="2.5" style="stroke:#181818;stroke-width:0.5;" width="110" x="267" y="7"/><rect fill="#98FB98" height="10" style="stroke:#181818;stroke-width:0.5;" width="15" x="357" y="12"/><rect fill="#98FB98" height="2" style="stroke:#181818;stroke-width:0.5;" width="4" x="355" y="14"/><rect fill="#98FB98" height="2" style="stroke:#181818;stroke-width:0.5;" width="4" x="355" y="18"/><text fill="#000000" font-family="sans-serif" font-size="14" lengthAdjust="spacing" textLength="70" x="282" y="41.5332">via_sphere</text></g><!--link via_sphere to via_angle--><g id="link_via_sphere_via_angle"><path d="M266.59,36.46 C221.11,41.03 161.06,49.41 141,63 C109.75,84.17 90.34,124.95 80.61,150.76 " fill="none" id="via_sphere-via_angle" style="stroke:#181818;stroke-width:1.0;"/></g><!--link via_sphere to eigen--><g id="link_via_sphere_eigen"><path d="M266.69,52.6 C261.76,55.66 257.1,59.11 253,63 C227.23,87.46 211.09,126.13 202.81,150.77 " fill="none" id="via_sphere-eigen" style="stroke:#181818;stroke-width:1.0;"/></g><!--link via_sphere to boost_test--><g id="link_via_sphere_boost_test"><path d="M322,55.13 C322,81.54 322,124.48 322,150.88 " fill="none" id="via_sphere-boost_test" style="stroke:#181818;stroke-width:1.0;"/></g><!--link via_sphere to pybind11--><g id="link_via_sphere_pybind11"><path d="M377.04,35.83 C402.26,39.76 431.47,47.57 454,63 C485.99,84.91 508.45,125.08 520.28,150.61 " fill="none" id="via_sphere-pybind11" style="stroke:#181818;stroke-width:1.0;"/></g><!--link via_sphere to gsl--><g id="link_via_sphere_gsl"><path d="M377.2,49.2 C382.63,52.94 387.43,57.49 391,63 C429.63,122.7 432.22,165.06 391,223 C358.85,268.18 289.56,279.07 250.08,281.5 " fill="none" id="via_sphere-gsl" style="stroke:#181818;stroke-width:1.0;"/></g><!--link via_angle to gsl--><g id="link_via_angle_gsl"><path d="M105.11,199 C130.96,217.51 166.97,243.3 191.96,261.2 " fill="none" id="via_angle-gsl" style="stroke:#181818;stroke-width:1.0;"/></g><!--SRC=[RL1DQm8n4BtdLmpqO8ieLNhoLhpsfCMhZCaZ6ngJa0p28lxtwhQxtLXp2E5zpPjCrZ6rsTb6w5c_qF9r-KOxn_G9tOJeestfGyoSthsdpKrMQ8E2V8APApKXSU91szGWWmmIWk6W7OfI1KA1ZoY9DRP8d5bYfjLAqVNeU4mn80YT7E_BJy1JOW-RWT1fhiOljg3rT4hd3gcTSFPN-J-HW_LumDdY1xJF5nGP3QWDXnYBx6-IGN2XxdcfIgPMcXWUzapjmGMpM8nStJNQV3QxQrrpVvlM-5svcgp6rbJ_2yFC7lm6]--></g></svg>