<svg xmlns="http://www.w3.org/2000/svg" xmlns:xlink="http://www.w3.org/1999/xlink" contentStyleType="text/css" height="537px" preserveAspectRatio="none" style="width:398px;height:537px;background:#FFFFFF;" version="1.1" viewBox="0 0 398 537" width="398px" zoomAndPan="magnify"><defs/><g><!--cluster sphere--><g id="cluster_sphere"><path d="M8.5,6 L59.5,6 A3.75,3.75 0 0 1 62,8.5 L69,29.6094 L368.5,29.6094 A2.5,2.5 0 0 1 371,32.1094 L371,404 A2.5,2.5 0 0 1 368.5,406.5 L8.5,406.5 A2.5,2.5 0 0 1 6,404 L6,8.5 A2.5,2.5 0 0 1 8.5,6 " fill="none" style="stroke:#000000;stroke-width:1.5;"/><line style="stroke:#000000;stroke-width:1.5;" x1="6" x2="69" y1="29.6094" y2="29.6094"/><text fill="#000000" font-family="sans-serif" font-size="14" font-weight="bold" lengthAdjust="spacing" textLength="50" x="10" y="22.5332">sphere</text></g><!--cluster vector--><g id="cluster_vector"><path d="M194.5,50 L241.5,50 A3.75,3.75 0 0 1 244,52.5 L251,73.6094 L303.5,73.6094 A2.5,2.5 0 0 1 306,76.1094 L306,200.5 A2.5,2.5 0 0 1 303.5,203 L194.5,203 A2.5,2.5 0 0 1 192,200.5 L192,52.5 A2.5,2.5 0 0 1 194.5,50 " fill="none" style="stroke:#000000;stroke-width:1.5;"/><line style="stroke:#000000;stroke-width:1.5;" x1="192" x2="251" y1="73.6094" y2="73.6094"/><text fill="#000000" font-family="sans-serif" font-size="14" font-weight="bold" lengthAdjust="spacing" textLength="46" x="196" y="66.5332">vector</text></g><!--cluster angle--><g id="cluster_angle"><path d="M53.5,430.5 L93.5,430.5 A3.75,3.75 0 0 1 96,433 L103,454.1094 L388.5,454.1094 A2.5,2.5 0 0 1 391,456.6094 L391,528 A2.5,2.5 0 0 1 388.5,530.5 L53.5,530.5 A2.5,2.5 0 0 1 51,528 L51,433 A2.5,2.5 0 0 1 53.5,430.5 " fill="none" style="stroke:#000000;stroke-width:1.5;"/><line style="stroke:#000000;stroke-width:1.5;" x1="51" x2="103" y1="454.1094" y2="454.1094"/><text fill="#000000" font-family="sans-serif" font-size="14" font-weight="bold" lengthAdjust="spacing" textLength="39" x="55" y="447.0332">angle</text></g><!--class Arc--><g id="elem_Arc"><rect codeLine="9" fill="#F1F1F1" height="118.4375" id="Arc" rx="2.5" ry="2.5" style="stroke:#181818;stroke-width:0.5;" width="89" x="84.5" y="77.5"/><ellipse cx="115.7" cy="93.5" fill="#ADD1B2" rx="11" ry="11" style="stroke:#181818;stroke-width:1.0;"/><path d="M118.4656,89.375 Q118.6219,89.1563 118.8094,89.0469 Q118.9969,88.9375 119.2156,88.9375 Q119.5906,88.9375 119.825,89.1953 Q120.0594,89.4531 120.0594,90.0625 L120.0594,91.5156 Q120.0594,92.125 119.825,92.3906 Q119.5906,92.6563 119.2156,92.6563 Q118.8719,92.6563 118.6688,92.4531 Q118.4656,92.2656 118.3563,91.75 Q118.3094,91.3906 118.1219,91.2031 Q117.7938,90.8281 117.1844,90.6094 Q116.575,90.3906 115.95,90.3906 Q115.1844,90.3906 114.5516,90.7188 Q113.9188,91.0469 113.4266,91.7969 Q112.9344,92.5469 112.9344,93.5781 L112.9344,94.6719 Q112.9344,95.9063 113.825,96.7266 Q114.7156,97.5469 116.3094,97.5469 Q117.2469,97.5469 117.9031,97.2969 Q118.2938,97.1406 118.7156,96.7031 Q118.9813,96.4375 119.1297,96.3594 Q119.2781,96.2813 119.4813,96.2813 Q119.8094,96.2813 120.0672,96.5391 Q120.325,96.7969 120.325,97.1406 Q120.325,97.4844 119.9813,97.8906 Q119.4813,98.4688 118.6844,98.7969 Q117.6063,99.25 116.3094,99.25 Q114.7938,99.25 113.5906,98.625 Q112.6063,98.125 111.9188,97.0547 Q111.2313,95.9844 111.2313,94.7031 L111.2313,93.5469 Q111.2313,92.2188 111.8484,91.0703 Q112.4656,89.9219 113.5594,89.3047 Q114.6531,88.6875 115.8875,88.6875 Q116.6219,88.6875 117.2703,88.8516 Q117.9188,89.0156 118.4656,89.375 Z " fill="#000000"/><text fill="#000000" font-family="sans-serif" font-size="14" lengthAdjust="spacing" textLength="21" x="133.3" y="99.2285">Arc</text><line style="stroke:#181818;stroke-width:0.5;" x1="85.5" x2="172.5" y1="109.5" y2="109.5"/><rect fill="none" height="6" style="stroke:#C82930;stroke-width:1.0;" width="6" x="92.5" y="120.8047"/><text fill="#000000" font-family="sans-serif" font-size="14" lengthAdjust="spacing" textLength="8" x="104.5" y="128.0332">a</text><rect fill="none" height="6" style="stroke:#C82930;stroke-width:1.0;" width="6" x="92.5" y="138.4141"/><text fill="#000000" font-family="sans-serif" font-size="14" lengthAdjust="spacing" textLength="27" x="104.5" y="145.6426">pole</text><rect fill="none" height="6" style="stroke:#C82930;stroke-width:1.0;" width="6" x="92.5" y="156.0234"/><text fill="#000000" font-family="sans-serif" font-size="14" lengthAdjust="spacing" textLength="39" x="104.5" y="163.252">length</text><rect fill="none" height="6" style="stroke:#C82930;stroke-width:1.0;" width="6" x="92.5" y="173.6328"/><text fill="#000000" font-family="sans-serif" font-size="14" lengthAdjust="spacing" textLength="63" x="104.5" y="180.8613">half_width</text><line style="stroke:#181818;stroke-width:0.5;" x1="85.5" x2="172.5" y1="187.9375" y2="187.9375"/></g><!--class LatLong--><g id="elem_LatLong"><rect codeLine="26" fill="#F1F1F1" height="83.2188" id="LatLong" rx="2.5" ry="2.5" style="stroke:#181818;stroke-width:0.5;" width="84" x="271" y="281.5"/><ellipse cx="286" cy="297.5" fill="#ADD1B2" rx="11" ry="11" style="stroke:#181818;stroke-width:1.0;"/><path d="M288.7656,293.375 Q288.9219,293.1563 289.1094,293.0469 Q289.2969,292.9375 289.5156,292.9375 Q289.8906,292.9375 290.125,293.1953 Q290.3594,293.4531 290.3594,294.0625 L290.3594,295.5156 Q290.3594,296.125 290.125,296.3906 Q289.8906,296.6563 289.5156,296.6563 Q289.1719,296.6563 288.9688,296.4531 Q288.7656,296.2656 288.6563,295.75 Q288.6094,295.3906 288.4219,295.2031 Q288.0938,294.8281 287.4844,294.6094 Q286.875,294.3906 286.25,294.3906 Q285.4844,294.3906 284.8516,294.7188 Q284.2188,295.0469 283.7266,295.7969 Q283.2344,296.5469 283.2344,297.5781 L283.2344,298.6719 Q283.2344,299.9063 284.125,300.7266 Q285.0156,301.5469 286.6094,301.5469 Q287.5469,301.5469 288.2031,301.2969 Q288.5938,301.1406 289.0156,300.7031 Q289.2813,300.4375 289.4297,300.3594 Q289.5781,300.2813 289.7813,300.2813 Q290.1094,300.2813 290.3672,300.5391 Q290.625,300.7969 290.625,301.1406 Q290.625,301.4844 290.2813,301.8906 Q289.7813,302.4688 288.9844,302.7969 Q287.9063,303.25 286.6094,303.25 Q285.0938,303.25 283.8906,302.625 Q282.9063,302.125 282.2188,301.0547 Q281.5313,299.9844 281.5313,298.7031 L281.5313,297.5469 Q281.5313,296.2188 282.1484,295.0703 Q282.7656,293.9219 283.8594,293.3047 Q284.9531,292.6875 286.1875,292.6875 Q286.9219,292.6875 287.5703,292.8516 Q288.2188,293.0156 288.7656,293.375 Z " fill="#000000"/><text fill="#000000" font-family="sans-serif" font-size="14" lengthAdjust="spacing" textLength="52" x="300" y="303.2285">LatLong</text><line style="stroke:#181818;stroke-width:0.5;" x1="272" x2="354" y1="313.5" y2="313.5"/><rect fill="none" height="6" style="stroke:#C82930;stroke-width:1.0;" width="6" x="279" y="324.8047"/><text fill="#000000" font-family="sans-serif" font-size="14" lengthAdjust="spacing" textLength="15" x="291" y="332.0332">lat</text><rect fill="none" height="6" style="stroke:#C82930;stroke-width:1.0;" width="6" x="279" y="342.4141"/><text fill="#000000" font-family="sans-serif" font-size="14" lengthAdjust="spacing" textLength="19" x="291" y="349.6426">lon</text><line style="stroke:#181818;stroke-width:0.5;" x1="272" x2="354" y1="356.7188" y2="356.7188"/></g><g id="elem_great_circle"><rect fill="#F1F1F1" height="135.2656" style="stroke:#181818;stroke-width:0.5;" width="213" x="22.5" y="255.5"/><text fill="#000000" font-family="sans-serif" font-size="14" lengthAdjust="spacing" textLength="74" x="92" y="272.0332">great_circle</text><line style="stroke:#181818;stroke-width:0.5;" x1="23.5" x2="234.5" y1="277.1094" y2="277.1094"/><ellipse cx="33.5" cy="291.4141" fill="none" rx="3" ry="3" style="stroke:#038048;stroke-width:1.0;"/><text fill="#000000" font-family="sans-serif" font-size="14" lengthAdjust="spacing" textLength="187" x="42.5" y="295.6426">calculate_haversine_distance</text><ellipse cx="33.5" cy="309.0234" fill="none" rx="3" ry="3" style="stroke:#038048;stroke-width:1.0;"/><text fill="#000000" font-family="sans-serif" font-size="14" lengthAdjust="spacing" textLength="92" x="42.5" y="313.252">e2gc_distance</text><ellipse cx="33.5" cy="326.6328" fill="none" rx="3" ry="3" style="stroke:#038048;stroke-width:1.0;"/><text fill="#000000" font-family="sans-serif" font-size="14" lengthAdjust="spacing" textLength="92" x="42.5" y="330.8613">gc2e_distance</text><ellipse cx="33.5" cy="344.2422" fill="none" rx="3" ry="3" style="stroke:#038048;stroke-width:1.0;"/><text fill="#000000" font-family="sans-serif" font-size="14" lengthAdjust="spacing" textLength="145" x="42.5" y="348.4707">sq_euclidean_distance</text><ellipse cx="33.5" cy="361.8516" fill="none" rx="3" ry="3" style="stroke:#038048;stroke-width:1.0;"/><text fill="#000000" font-family="sans-serif" font-size="14" lengthAdjust="spacing" textLength="140" x="42.5" y="366.0801">calculate_gc_distance</text><ellipse cx="33.5" cy="379.4609" fill="none" rx="3" ry="3" style="stroke:#038048;stroke-width:1.0;"/><text fill="#000000" font-family="sans-serif" font-size="14" lengthAdjust="spacing" textLength="135" x="42.5" y="383.6895">calculate_gc_azimuth</text></g><!--class Vector3--><g id="elem_Vector3"><rect codeLine="17" fill="#F1F1F1" height="100.8281" id="Vector3" rx="2.5" ry="2.5" style="stroke:#181818;stroke-width:0.5;" width="81" x="208.5" y="86"/><ellipse cx="223.5" cy="102" fill="#ADD1B2" rx="11" ry="11" style="stroke:#181818;stroke-width:1.0;"/><path d="M226.2656,97.875 Q226.4219,97.6563 226.6094,97.5469 Q226.7969,97.4375 227.0156,97.4375 Q227.3906,97.4375 227.625,97.6953 Q227.8594,97.9531 227.8594,98.5625 L227.8594,100.0156 Q227.8594,100.625 227.625,100.8906 Q227.3906,101.1563 227.0156,101.1563 Q226.6719,101.1563 226.4688,100.9531 Q226.2656,100.7656 226.1563,100.25 Q226.1094,99.8906 225.9219,99.7031 Q225.5938,99.3281 224.9844,99.1094 Q224.375,98.8906 223.75,98.8906 Q222.9844,98.8906 222.3516,99.2188 Q221.7188,99.5469 221.2266,100.2969 Q220.7344,101.0469 220.7344,102.0781 L220.7344,103.1719 Q220.7344,104.4063 221.625,105.2266 Q222.5156,106.0469 224.1094,106.0469 Q225.0469,106.0469 225.7031,105.7969 Q226.0938,105.6406 226.5156,105.2031 Q226.7813,104.9375 226.9297,104.8594 Q227.0781,104.7813 227.2813,104.7813 Q227.6094,104.7813 227.8672,105.0391 Q228.125,105.2969 228.125,105.6406 Q228.125,105.9844 227.7813,106.3906 Q227.2813,106.9688 226.4844,107.2969 Q225.4063,107.75 224.1094,107.75 Q222.5938,107.75 221.3906,107.125 Q220.4063,106.625 219.7188,105.5547 Q219.0313,104.4844 219.0313,103.2031 L219.0313,102.0469 Q219.0313,100.7188 219.6484,99.5703 Q220.2656,98.4219 221.3594,97.8047 Q222.4531,97.1875 223.6875,97.1875 Q224.4219,97.1875 225.0703,97.3516 Q225.7188,97.5156 226.2656,97.875 Z " fill="#000000"/><text fill="#000000" font-family="sans-serif" font-size="14" lengthAdjust="spacing" textLength="49" x="237.5" y="107.7285">Vector3</text><line style="stroke:#181818;stroke-width:0.5;" x1="209.5" x2="288.5" y1="118" y2="118"/><rect fill="none" height="6" style="stroke:#C82930;stroke-width:1.0;" width="6" x="216.5" y="129.3047"/><text fill="#000000" font-family="sans-serif" font-size="14" lengthAdjust="spacing" textLength="6" x="228.5" y="136.5332">x</text><rect fill="none" height="6" style="stroke:#C82930;stroke-width:1.0;" width="6" x="216.5" y="146.9141"/><text fill="#000000" font-family="sans-serif" font-size="14" lengthAdjust="spacing" textLength="7" x="228.5" y="154.1426">y</text><rect fill="none" height="6" style="stroke:#C82930;stroke-width:1.0;" width="6" x="216.5" y="164.5234"/><text fill="#000000" font-family="sans-serif" font-size="14" lengthAdjust="spacing" textLength="6" x="228.5" y="171.752">z</text><line style="stroke:#181818;stroke-width:0.5;" x1="209.5" x2="288.5" y1="178.8281" y2="178.8281"/></g><!--class Angle--><g id="elem_Angle"><rect fill="#F1F1F1" height="48" id="Angle" rx="2.5" ry="2.5" style="stroke:#181818;stroke-width:0.5;" width="68" x="186" y="466.5"/><ellipse cx="201" cy="482.5" fill="#ADD1B2" rx="11" ry="11" style="stroke:#181818;stroke-width:1.0;"/><path d="M203.7656,478.375 Q203.9219,478.1563 204.1094,478.0469 Q204.2969,477.9375 204.5156,477.9375 Q204.8906,477.9375 205.125,478.1953 Q205.3594,478.4531 205.3594,479.0625 L205.3594,480.5156 Q205.3594,481.125 205.125,481.3906 Q204.8906,481.6563 204.5156,481.6563 Q204.1719,481.6563 203.9688,481.4531 Q203.7656,481.2656 203.6563,480.75 Q203.6094,480.3906 203.4219,480.2031 Q203.0938,479.8281 202.4844,479.6094 Q201.875,479.3906 201.25,479.3906 Q200.4844,479.3906 199.8516,479.7188 Q199.2188,480.0469 198.7266,480.7969 Q198.2344,481.5469 198.2344,482.5781 L198.2344,483.6719 Q198.2344,484.9063 199.125,485.7266 Q200.0156,486.5469 201.6094,486.5469 Q202.5469,486.5469 203.2031,486.2969 Q203.5938,486.1406 204.0156,485.7031 Q204.2813,485.4375 204.4297,485.3594 Q204.5781,485.2813 204.7813,485.2813 Q205.1094,485.2813 205.3672,485.5391 Q205.625,485.7969 205.625,486.1406 Q205.625,486.4844 205.2813,486.8906 Q204.7813,487.4688 203.9844,487.7969 Q202.9063,488.25 201.6094,488.25 Q200.0938,488.25 198.8906,487.625 Q197.9063,487.125 197.2188,486.0547 Q196.5313,484.9844 196.5313,483.7031 L196.5313,482.5469 Q196.5313,481.2188 197.1484,480.0703 Q197.7656,478.9219 198.8594,478.3047 Q199.9531,477.6875 201.1875,477.6875 Q201.9219,477.6875 202.5703,477.8516 Q203.2188,478.0156 203.7656,478.375 Z " fill="#000000"/><text fill="#000000" font-family="sans-serif" font-size="14" lengthAdjust="spacing" textLength="36" x="215" y="488.2285">Angle</text><line style="stroke:#181818;stroke-width:0.5;" x1="187" x2="253" y1="498.5" y2="498.5"/><line style="stroke:#181818;stroke-width:0.5;" x1="187" x2="253" y1="506.5" y2="506.5"/></g><!--class Radians--><g id="elem_Radians"><rect fill="#F1F1F1" height="48" id="Radians" rx="2.5" ry="2.5" style="stroke:#181818;stroke-width:0.5;" width="84" x="67" y="466.5"/><ellipse cx="82" cy="482.5" fill="#ADD1B2" rx="11" ry="11" style="stroke:#181818;stroke-width:1.0;"/><path d="M84.7656,478.375 Q84.9219,478.1563 85.1094,478.0469 Q85.2969,477.9375 85.5156,477.9375 Q85.8906,477.9375 86.125,478.1953 Q86.3594,478.4531 86.3594,479.0625 L86.3594,480.5156 Q86.3594,481.125 86.125,481.3906 Q85.8906,481.6563 85.5156,481.6563 Q85.1719,481.6563 84.9688,481.4531 Q84.7656,481.2656 84.6563,480.75 Q84.6094,480.3906 84.4219,480.2031 Q84.0938,479.8281 83.4844,479.6094 Q82.875,479.3906 82.25,479.3906 Q81.4844,479.3906 80.8516,479.7188 Q80.2188,480.0469 79.7266,480.7969 Q79.2344,481.5469 79.2344,482.5781 L79.2344,483.6719 Q79.2344,484.9063 80.125,485.7266 Q81.0156,486.5469 82.6094,486.5469 Q83.5469,486.5469 84.2031,486.2969 Q84.5938,486.1406 85.0156,485.7031 Q85.2813,485.4375 85.4297,485.3594 Q85.5781,485.2813 85.7813,485.2813 Q86.1094,485.2813 86.3672,485.5391 Q86.625,485.7969 86.625,486.1406 Q86.625,486.4844 86.2813,486.8906 Q85.7813,487.4688 84.9844,487.7969 Q83.9063,488.25 82.6094,488.25 Q81.0938,488.25 79.8906,487.625 Q78.9063,487.125 78.2188,486.0547 Q77.5313,484.9844 77.5313,483.7031 L77.5313,482.5469 Q77.5313,481.2188 78.1484,480.0703 Q78.7656,478.9219 79.8594,478.3047 Q80.9531,477.6875 82.1875,477.6875 Q82.9219,477.6875 83.5703,477.8516 Q84.2188,478.0156 84.7656,478.375 Z " fill="#000000"/><text fill="#000000" font-family="sans-serif" font-size="14" lengthAdjust="spacing" textLength="52" x="96" y="488.2285">Radians</text><line style="stroke:#181818;stroke-width:0.5;" x1="68" x2="150" y1="498.5" y2="498.5"/><line style="stroke:#181818;stroke-width:0.5;" x1="68" x2="150" y1="506.5" y2="506.5"/></g><!--class Degrees--><g id="elem_Degrees"><rect fill="#F1F1F1" height="48" id="Degrees" rx="2.5" ry="2.5" style="stroke:#181818;stroke-width:0.5;" width="86" x="289" y="466.5"/><ellipse cx="304" cy="482.5" fill="#ADD1B2" rx="11" ry="11" style="stroke:#181818;stroke-width:1.0;"/><path d="M306.7656,478.375 Q306.9219,478.1563 307.1094,478.0469 Q307.2969,477.9375 307.5156,477.9375 Q307.8906,477.9375 308.125,478.1953 Q308.3594,478.4531 308.3594,479.0625 L308.3594,480.5156 Q308.3594,481.125 308.125,481.3906 Q307.8906,481.6563 307.5156,481.6563 Q307.1719,481.6563 306.9688,481.4531 Q306.7656,481.2656 306.6563,480.75 Q306.6094,480.3906 306.4219,480.2031 Q306.0938,479.8281 305.4844,479.6094 Q304.875,479.3906 304.25,479.3906 Q303.4844,479.3906 302.8516,479.7188 Q302.2188,480.0469 301.7266,480.7969 Q301.2344,481.5469 301.2344,482.5781 L301.2344,483.6719 Q301.2344,484.9063 302.125,485.7266 Q303.0156,486.5469 304.6094,486.5469 Q305.5469,486.5469 306.2031,486.2969 Q306.5938,486.1406 307.0156,485.7031 Q307.2813,485.4375 307.4297,485.3594 Q307.5781,485.2813 307.7813,485.2813 Q308.1094,485.2813 308.3672,485.5391 Q308.625,485.7969 308.625,486.1406 Q308.625,486.4844 308.2813,486.8906 Q307.7813,487.4688 306.9844,487.7969 Q305.9063,488.25 304.6094,488.25 Q303.0938,488.25 301.8906,487.625 Q300.9063,487.125 300.2188,486.0547 Q299.5313,484.9844 299.5313,483.7031 L299.5313,482.5469 Q299.5313,481.2188 300.1484,480.0703 Q300.7656,478.9219 301.8594,478.3047 Q302.9531,477.6875 304.1875,477.6875 Q304.9219,477.6875 305.5703,477.8516 Q306.2188,478.0156 306.7656,478.375 Z " fill="#000000"/><text fill="#000000" font-family="sans-serif" font-size="14" lengthAdjust="spacing" textLength="54" x="318" y="488.2285">Degrees</text><line style="stroke:#181818;stroke-width:0.5;" x1="290" x2="374" y1="498.5" y2="498.5"/><line style="stroke:#181818;stroke-width:0.5;" x1="290" x2="374" y1="506.5" y2="506.5"/></g><!--reverse link Arc to Vector3--><g id="link_Arc_Vector3"><path codeLine="24" d="M185.53,136.5 C197.13,136.5 196.72,136.5 208.32,136.5 " fill="none" id="Arc-backto-Vector3" style="stroke:#181818;stroke-width:1.0;"/><polygon fill="#181818" points="173.53,136.5,179.53,140.5,185.53,136.5,179.53,132.5,173.53,136.5" style="stroke:#181818;stroke-width:1.0;"/><text fill="#000000" font-family="sans-serif" font-size="13" lengthAdjust="spacing" textLength="7" x="193.4504" y="132.6167">2</text></g><!--link Arc to great_circle--><g id="link_Arc_great_circle"><path codeLine="40" d="M129,195.62 C129,214.64 129,235.9 129,255.48 " fill="none" id="Arc-great_circle" style="stroke:#181818;stroke-width:1.0;stroke-dasharray:7.0,7.0;"/></g><!--link Vector3 to LatLong--><g id="link_Vector3_LatLong"><path codeLine="42" d="M266.32,187.43 C276.54,216.88 289.3,253.69 298.9,281.36 " fill="none" id="Vector3-LatLong" style="stroke:#181818;stroke-width:1.0;stroke-dasharray:7.0,7.0;"/></g><!--link Vector3 to great_circle--><g id="link_Vector3_great_circle"><path codeLine="43" d="M219.82,187.17 C214.96,195.19 209.89,203.36 205,211 C195.74,225.45 185.53,240.76 175.68,255.23 " fill="none" id="Vector3-great_circle" style="stroke:#181818;stroke-width:1.0;stroke-dasharray:7.0,7.0;"/></g><!--link great_circle to LatLong--><g id="link_great_circle_LatLong"><path codeLine="45" d="M235.73,323 C247.4,323 259.08,323 270.75,323 " fill="none" id="great_circle-LatLong" style="stroke:#181818;stroke-width:1.0;stroke-dasharray:7.0,7.0;"/></g><!--link great_circle to Angle--><g id="link_great_circle_Angle"><path codeLine="48" d="M165.75,390.84 C180.45,417.57 196.42,446.61 207.19,466.21 " fill="none" id="great_circle-Angle" style="stroke:#181818;stroke-width:1.0;stroke-dasharray:7.0,7.0;"/></g><!--link great_circle to Radians--><g id="link_great_circle_Radians"><path codeLine="49" d="M120.92,390.84 C117.69,417.57 114.18,446.61 111.81,466.21 " fill="none" id="great_circle-Radians" style="stroke:#181818;stroke-width:1.0;stroke-dasharray:7.0,7.0;"/></g><!--link LatLong to Angle--><g id="link_LatLong_Angle"><path codeLine="50" d="M290.01,364.91 C272.05,396.88 247.73,440.16 232.99,466.39 " fill="none" id="LatLong-Angle" style="stroke:#181818;stroke-width:1.0;stroke-dasharray:7.0,7.0;"/></g><!--reverse link LatLong to Degrees--><g id="link_LatLong_Degrees"><path codeLine="51" d="M319.0686,376.8317 C322.7386,408.8017 326.34,440.16 329.35,466.39 " fill="none" id="LatLong-backto-Degrees" style="stroke:#181818;stroke-width:1.0;"/><polygon fill="#181818" points="317.7,364.91,314.4104,371.327,319.0686,376.8317,322.3582,370.4147,317.7,364.91" style="stroke:#181818;stroke-width:1.0;"/><text fill="#000000" font-family="sans-serif" font-size="13" lengthAdjust="spacing" textLength="7" x="320.7741" y="455.702">2</text></g><!--SRC=[VL9DRy8m3BtdLrXSs9YefcwdtX0SES74jV9IByqKaYu9R33ntzSFAAIqywN9Uy_FZjtnt1G7AqNkuO4_GlmSly968hmHpxLHHXnWwRC8Pah1gf8vM94ZkwSiOcmCNdf5i2voiWHpXSx1GgAmk6NCaGUDMt85SbfJWHQziP0aZ44PBGMkIV-juIfuRJIp_0QhOWhOkHT6KGTIf8NFEs2EwYFzbjaDSMBjyThAddZLOrYsQMTJKoyThh7_wS4EFTWnm4vzlLIldanX58yk5LbdBalqIwF5tMmK-YvYT5y9y_vPEeEmX3xbqd957RCduAZuhdIaDCSzMISrfPbq7ZMdZfHYmOSumUF1FFULqeuhcH7g8SsrZU4QWGQFShlhtt8rsIWAdjroxU6ovL9udlCz5LgqV33FCFtSHQY80BLGb2IpwlEVO8MPHErgoMNxVUaNRZ9jVg2pO46bBxa_]--></g></svg>