<svg xmlns="http://www.w3.org/2000/svg" xmlns:xlink="http://www.w3.org/1999/xlink" contentStyleType="text/css" height="330px" preserveAspectRatio="none" style="width:758px;height:330px;background:#FFFFFF;" version="1.1" viewBox="0 0 758 330" width="758px" zoomAndPan="magnify"><defs/><g><!--cluster C++--><g id="cluster_C++"><path d="M53.52,71 L80.52,71 A3.75,3.75 0 0 1 83.02,73.5 L90.02,94.6094 L457.52,94.6094 A2.5,2.5 0 0 1 460.02,97.1094 L460.02,320.5 A2.5,2.5 0 0 1 457.52,323 L53.52,323 A2.5,2.5 0 0 1 51.02,320.5 L51.02,73.5 A2.5,2.5 0 0 1 53.52,71 " fill="none" style="stroke:#000000;stroke-width:1.5;"/><line style="stroke:#000000;stroke-width:1.5;" x1="51.02" x2="90.02" y1="94.6094" y2="94.6094"/><text fill="#000000" font-family="sans-serif" font-size="14" font-weight="bold" lengthAdjust="spacing" textLength="26" x="55.02" y="87.5332">C++</text></g><!--cluster test--><g id="cluster_test"><path d="M300.52,115 L328.52,115 A3.75,3.75 0 0 1 331.02,117.5 L338.02,138.6094 L433.52,138.6094 A2.5,2.5 0 0 1 436.02,141.1094 L436.02,212.5 A2.5,2.5 0 0 1 433.52,215 L300.52,215 A2.5,2.5 0 0 1 298.02,212.5 L298.02,117.5 A2.5,2.5 0 0 1 300.52,115 " fill="none" style="stroke:#000000;stroke-width:1.5;"/><line style="stroke:#000000;stroke-width:1.5;" x1="298.02" x2="338.02" y1="138.6094" y2="138.6094"/><text fill="#000000" font-family="sans-serif" font-size="14" font-weight="bold" lengthAdjust="spacing" textLength="27" x="302.02" y="131.5332">test</text></g><!--cluster python--><g id="cluster_python"><path d="M486.52,71 L535.52,71 A3.75,3.75 0 0 1 538.02,73.5 L545.02,94.6094 L748.52,94.6094 A2.5,2.5 0 0 1 751.02,97.1094 L751.02,320.5 A2.5,2.5 0 0 1 748.52,323 L486.52,323 A2.5,2.5 0 0 1 484.02,320.5 L484.02,73.5 A2.5,2.5 0 0 1 486.52,71 " fill="none" style="stroke:#000000;stroke-width:1.5;"/><line style="stroke:#000000;stroke-width:1.5;" x1="484.02" x2="545.02" y1="94.6094" y2="94.6094"/><text fill="#000000" font-family="sans-serif" font-size="14" font-weight="bold" lengthAdjust="spacing" textLength="48" x="488.02" y="87.5332">python</text></g><!--cluster test--><g id="cluster_test"><path d="M619.52,115 L647.52,115 A3.75,3.75 0 0 1 650.02,117.5 L657.02,138.6094 L724.52,138.6094 A2.5,2.5 0 0 1 727.02,141.1094 L727.02,212.5 A2.5,2.5 0 0 1 724.52,215 L619.52,215 A2.5,2.5 0 0 1 617.02,212.5 L617.02,117.5 A2.5,2.5 0 0 1 619.52,115 " fill="none" style="stroke:#000000;stroke-width:1.5;"/><line style="stroke:#000000;stroke-width:1.5;" x1="617.02" x2="657.02" y1="138.6094" y2="138.6094"/><text fill="#000000" font-family="sans-serif" font-size="14" font-weight="bold" lengthAdjust="spacing" textLength="27" x="621.02" y="131.5332">test</text></g><!--entity eigen--><g id="elem_eigen"><rect fill="#F1F1F1" height="47.6094" rx="2.5" ry="2.5" style="stroke:#181818;stroke-width:0.5;" width="75" x="203.52" y="151"/><rect fill="#F1F1F1" height="10" style="stroke:#181818;stroke-width:0.5;" width="15" x="258.52" y="156"/><rect fill="#F1F1F1" height="2" style="stroke:#181818;stroke-width:0.5;" width="4" x="256.52" y="158"/><rect fill="#F1F1F1" height="2" style="stroke:#181818;stroke-width:0.5;" width="4" x="256.52" y="162"/><text fill="#000000" font-family="sans-serif" font-size="14" lengthAdjust="spacing" textLength="35" x="218.52" y="185.5332">eigen</text></g><!--entity via_angle--><g id="elem_via_angle"><rect fill="#F1F1F1" height="47.6094" rx="2.5" ry="2.5" style="stroke:#181818;stroke-width:0.5;" width="101" x="67.52" y="151"/><rect fill="#F1F1F1" height="10" style="stroke:#181818;stroke-width:0.5;" width="15" x="148.52" y="156"/><rect fill="#F1F1F1" height="2" style="stroke:#181818;stroke-width:0.5;" width="4" x="146.52" y="158"/><rect fill="#F1F1F1" height="2" style="stroke:#181818;stroke-width:0.5;" width="4" x="146.52" y="162"/><text fill="#000000" font-family="sans-serif" font-size="14" lengthAdjust="spacing" textLength="61" x="82.52" y="185.5332">via_angle</text></g><!--entity gsl--><g id="elem_gsl"><rect fill="#F1F1F1" height="47.6094" rx="2.5" ry="2.5" style="stroke:#181818;stroke-width:0.5;" width="58" x="78.02" y="259"/><rect fill="#F1F1F1" height="10" style="stroke:#181818;stroke-width:0.5;" width="15" x="116.02" y="264"/><rect fill="#F1F1F1" height="2" style="stroke:#181818;stroke-width:0.5;" width="4" x="114.02" y="266"/><rect fill="#F1F1F1" height="2" style="stroke:#181818;stroke-width:0.5;" width="4" x="114.02" y="270"/><text fill="#000000" font-family="sans-serif" font-size="14" lengthAdjust="spacing" textLength="18" x="93.02" y="293.5332">gsl</text></g><!--entity boost_test--><g id="elem_boost_test"><rect fill="#F1F1F1" height="47.6094" rx="2.5" ry="2.5" style="stroke:#181818;stroke-width:0.5;" width="106" x="314.02" y="151"/><rect fill="#F1F1F1" height="10" style="stroke:#181818;stroke-width:0.5;" width="15" x="400.02" y="156"/><rect fill="#F1F1F1" height="2" style="stroke:#181818;stroke-width:0.5;" width="4" x="398.02" y="158"/><rect fill="#F1F1F1" height="2" style="stroke:#181818;stroke-width:0.5;" width="4" x="398.02" y="162"/><text fill="#000000" font-family="sans-serif" font-size="14" lengthAdjust="spacing" textLength="66" x="329.02" y="185.5332">boost_test</text></g><!--entity pybind11--><g id="elem_pybind11"><rect fill="#F1F1F1" height="47.6094" rx="2.5" ry="2.5" style="stroke:#181818;stroke-width:0.5;" width="98" x="500.02" y="151"/><rect fill="#F1F1F1" height="10" style="stroke:#181818;stroke-width:0.5;" width="15" x="578.02" y="156"/><rect fill="#F1F1F1" height="2" style="stroke:#181818;stroke-width:0.5;" width="4" x="576.02" y="158"/><rect fill="#F1F1F1" height="2" style="stroke:#181818;stroke-width:0.5;" width="4" x="576.02" y="162"/><text fill="#000000" font-family="sans-serif" font-size="14" lengthAdjust="spacing" textLength="58" x="515.02" y="185.5332">pybind11</text></g><!--entity numpy--><g id="elem_numpy"><rect fill="#F1F1F1" height="47.6094" rx="2.5" ry="2.5" style="stroke:#181818;stroke-width:0.5;" width="82" x="508.02" y="259"/><rect fill="#F1F1F1" height="10" style="stroke:#181818;stroke-width:0.5;" width="15" x="570.02" y="264"/><rect fill="#F1F1F1" height="2" style="stroke:#181818;stroke-width:0.5;" width="4" x="568.02" y="266"/><rect fill="#F1F1F1" height="2" style="stroke:#181818;stroke-width:0.5;" width="4" x="568.02" y="270"/><text fill="#000000" font-family="sans-serif" font-size="14" lengthAdjust="spacing" textLength="42" x="523.02" y="293.5332">numpy</text></g><!--entity pytest--><g id="elem_pytest"><rect fill="#F1F1F1" height="47.6094" rx="2.5" ry="2.5" style="stroke:#181818;stroke-width:0.5;" width="78" x="633.02" y="151"/><rect fill="#F1F1F1" height="10" style="stroke:#181818;stroke-width:0.5;" width="15" x="691.02" y="156"/><rect fill="#F1F1F1" height="2" style="stroke:#181818;stroke-width:0.5;" width="4" x="689.02" y="158"/><rect fill="#F1F1F1" height="2" style="stroke:#181818;stroke-width:0.5;" width="4" x="689.02" y="162"/><text fill="#000000" font-family="sans-serif" font-size="14" lengthAdjust="spacing" textLength="38" x="648.02" y="185.5332">pytest</text></g><!--entity via_sphere--><g id="elem_via_sphere"><rect fill="#98FB98" height="47.6094" rx="2.5" ry="2.5" style="stroke:#181818;stroke-width:0.5;" width="110" x="124.02" y="7"/><rect fill="#98FB98" height="10" style="stroke:#181818;stroke-width:0.5;" width="15" x="214.02" y="12"/><rect fill="#98FB98" height="2" style="stroke:#181818;stroke-width:0.5;" width="4" x="212.02" y="14"/><rect fill="#98FB98" height="2" style="stroke:#181818;stroke-width:0.5;" width="4" x="212.02" y="18"/><text fill="#000000" font-family="sans-serif" font-size="14" lengthAdjust="spacing" textLength="70" x="139.02" y="41.5332">via_sphere</text></g><!--link pybind11 to numpy--><g id="link_pybind11_numpy"><path d="M549.02,199 C549.02,216.66 549.02,240.94 549.02,258.68 " fill="none" id="pybind11-numpy" style="stroke:#181818;stroke-width:1.0;"/></g><!--link via_sphere to via_angle--><g id="link_via_sphere_via_angle"><path d="M169.09,55.13 C157.74,81.54 139.3,124.48 127.95,150.88 " fill="none" id="via_sphere-via_angle" style="stroke:#181818;stroke-width:1.0;"/></g><!--link via_sphere to eigen--><g id="link_via_sphere_eigen"><path d="M189.12,55.13 C200.65,81.54 219.4,124.48 230.93,150.88 " fill="none" id="via_sphere-eigen" style="stroke:#181818;stroke-width:1.0;"/></g><!--link via_sphere to pybind11--><g id="link_via_sphere_pybind11"><path d="M234.04,34.49 C298.66,38.13 401.44,46.37 436.02,63 C477.66,83.02 513.31,124.57 532.9,150.77 " fill="none" id="via_sphere-pybind11" style="stroke:#181818;stroke-width:1.0;"/></g><!--link via_sphere to gsl--><g id="link_via_sphere_gsl"><path d="M123.82,38.42 C93.18,43.25 59.4,51.11 50.02,63 C6,118.85 23.38,157.07 50.02,223 C55.84,237.39 67.04,250.23 77.98,260.22 " fill="none" id="via_sphere-gsl" style="stroke:#181818;stroke-width:1.0;"/></g><!--link via_angle to gsl--><g id="link_via_angle_gsl"><path d="M115.64,199 C113.8,216.66 111.28,240.94 109.44,258.68 " fill="none" id="via_angle-gsl" style="stroke:#181818;stroke-width:1.0;"/></g><!--SRC=[bL2nQiCm5Dpz5Gywf2KaDA5JjfArKnAw1iKwP57vIKYl0HFoxxMTrB6ebseGukxUlTFDjZuqqPfAwBbyeVNh-eq-hQ83oegzywQX3z5BUdUETfqiqGu9yGozB8ePYHK7seSA4QGHm1fSMgIYI11YLIC5LMAFeA8I7scpAQWzfQ-3Px3GsQfZkXay1ULW8i2zfXtyKWQqdS_fqYFv9AovA_ywAZOE4vn9Ra1__GL9HWloWPFtIOwTP11SgNzUiv2XaShpPCxGd2phrMg2ukywDFyBr2xAmZocxsjeiHZvtlZ-6ZNTIlAMSkxHR8vdFnbJGw-3QoVlm1y0]--></g></svg>